HIERARCHY
ROOT SpineBase
{
  OFFSET 0.000000 0.000000 0.000000
  CHANNELS 6 Xposition Yposition Zposition Zrotation Xrotation Yrotation
  JOINT SpineMid
  {
    OFFSET 0.000000 22.084623 0.000000
    CHANNELS 3 Zrotation Xrotation Yrotation
    JOINT SpineShoulder
    {
      OFFSET 0.042852 16.337817 -0.611273
      CHANNELS 3 Zrotation Xrotation Yrotation
      JOINT Neck
      {
        OFFSET 0.051273 5.376365 -0.436016
        CHANNELS 3 Zrotation Xrotation Yrotation
        JOINT Head
        {
          OFFSET 1.577445 9.795092 3.475343
          CHANNELS 3 Zrotation Xrotation Yrotation
          End Site
          {
            OFFSET 0 0 0
          }
        }
      }
      JOINT ShoulderLeft
      {
        OFFSET -2.138052 -5.044989 -11.834537
        CHANNELS 3 Zrotation Xrotation Yrotation
        JOINT ElbowLeft
        {
          OFFSET -0.689508 -19.798927 -4.413163
          CHANNELS 3 Zrotation Xrotation Yrotation
          JOINT WristLeft
          {
            OFFSET 4.271591 -20.728730 2.015945
            CHANNELS 3 Zrotation Xrotation Yrotation
            JOINT HandLeft
            {
              OFFSET 0.341316 -4.033761 0.875593
              CHANNELS 3 Zrotation Xrotation Yrotation
              JOINT HandTipLeft
              {
                OFFSET 1.362061 -5.810370 -0.616734
                CHANNELS 3 Zrotation Xrotation Yrotation
                End Site
                {
                  OFFSET 0 0 0
                }
              }
              JOINT ThumbLeft
              {
                OFFSET 2.197431 -1.162875 -1.101844
                CHANNELS 3 Zrotation Xrotation Yrotation
                End Site
                {
                  OFFSET 0 0 0
                }
              }
            }
          }
        }
      }
      JOINT ShoulderRight
      {
        OFFSET 3.416114 -3.944169 8.908063
        CHANNELS 3 Zrotation Xrotation Yrotation
        JOINT ElbowRight
        {
          OFFSET -3.275614 -15.819681 -22.891144
          CHANNELS 3 Zrotation Xrotation Yrotation
          JOINT WristRight
          {
            OFFSET -2.402459 -19.736140 -2.611072
            CHANNELS 3 Zrotation Xrotation Yrotation
            JOINT HandRight
            {
              OFFSET 1.427282 -4.153522 2.033964
              CHANNELS 3 Zrotation Xrotation Yrotation
              JOINT HandTipRight
              {
                OFFSET 0.245812 -3.953582 -0.270420
                CHANNELS 3 Zrotation Xrotation Yrotation
                End Site
                {
                  OFFSET 0 0 0
                }
              }
              JOINT ThumbRight
              {
                OFFSET -1.583168 0.501604 -0.464167
                CHANNELS 3 Zrotation Xrotation Yrotation
                End Site
                {
                  OFFSET 0 0 0
                }
              }
            }
          }
        }
      }
    }
  }
  JOINT HipLeft
  {
    OFFSET -0.430938 0.010531 -7.882550
    CHANNELS 3 Zrotation Xrotation Yrotation
    JOINT KneeLeft
    {
      OFFSET -6.705137 -41.333433 6.065922
      CHANNELS 3 Zrotation Xrotation Yrotation
      JOINT AnkleLeft
      {
        OFFSET -6.900692 -36.825656 3.788685
        CHANNELS 3 Zrotation Xrotation Yrotation
        JOINT FootLeft
        {
          OFFSET 2.556069 -6.658477 -1.531323
          CHANNELS 3 Zrotation Xrotation Yrotation
          End Site
          {
            OFFSET 0 0 0
          }
        }
      }
    }
  }
  JOINT HipRight
  {
    OFFSET 1.750930 0.702710 2.401086
    CHANNELS 3 Zrotation Xrotation Yrotation
    JOINT KneeRight
    {
      OFFSET -19.713214 -22.475611 -12.373683
      CHANNELS 3 Zrotation Xrotation Yrotation
      JOINT AnkleRight
      {
        OFFSET -1.585002 -33.454994 3.388509
        CHANNELS 3 Zrotation Xrotation Yrotation
        JOINT FootRight
        {
          OFFSET 8.242200 -3.619570 -4.189398
          CHANNELS 3 Zrotation Xrotation Yrotation
          End Site
          {
            OFFSET 0 0 0
          }
        }
      }
    }
  }
}
MOTION
Frames: 13
Frame Time: 0.033333
-85.285528 80.438405 336.396456 6.220655 -0.592941 100.684144 1.628095 0.916427 -100.550664 0.476169 0.390784 0.233550 7.371446 17.416299 -9.539958 0.000000 0.000000 0.000000 0.687743 -3.896347 -1.516822 -8.396770 4.529680 1.793762 -15.391842 -23.727184 -9.530560 19.079123 25.199267 0.587755 0.000000 0.000000 0.000000 0.000000 0.000000 0.000000 0.591329 0.963126 -9.564580 -3.081954 1.234869 8.071254 -13.355061 10.451429 1.533890 8.441954 -18.181062 0.549660 0.000000 0.000000 0.000000 0.000000 0.000000 0.000000 9.045586 6.672561 -102.998315 0.772720 -4.589693 0.844005 31.567204 -2.891363 -4.819358 0.000000 0.000000 0.000000 -11.343034 -0.427143 -93.809759 -8.598668 10.123045 -5.219126 5.339400 1.275828 -7.567523 0.000000 0.000000 0.000000
-85.553809 80.276066 336.746768 6.244074 -0.629140 106.480950 1.731427 0.285940 -106.330156 0.206773 0.421308 0.226871 8.417936 17.145680 -10.113346 0.000000 0.000000 0.000000 2.603097 -4.814951 -1.820278 -10.427032 5.614338 2.471792 -29.328409 -31.170534 -18.448091 33.383144 35.644439 -3.577066 0.000000 0.000000 0.000000 0.000000 0.000000 0.000000 1.468788 -3.787891 -10.509388 -4.380034 7.547402 8.890067 -19.359425 18.292193 4.353576 11.776540 -27.704765 0.327659 0.000000 0.000000 0.000000 0.000000 0.000000 0.000000 10.106554 4.956868 -108.749911 -0.398792 -4.868935 0.629809 40.159106 -0.577854 -5.709492 0.000000 0.000000 0.000000 -13.638463 -2.539296 -100.616248 -12.553544 11.435128 -3.788162 2.447791 -1.218100 -10.866784 0.000000 0.000000 0.000000
-85.886967 80.269805 336.843432 6.165308 -0.343551 107.511375 1.371132 -0.057214 -107.347490 0.106946 0.362965 0.234904 8.850101 16.825594 -10.378171 0.000000 0.000000 0.000000 4.195535 -5.657218 -2.055632 -11.481175 6.407852 3.018446 -38.048846 -32.708359 -23.467465 39.707943 38.704695 -5.387902 0.000000 0.000000 0.000000 0.000000 0.000000 0.000000 2.121203 -9.300603 -11.076689 -7.840845 15.055226 10.045870 -23.831291 25.520112 7.841420 14.322294 -36.423630 0.013187 0.000000 0.000000 0.000000 0.000000 0.000000 0.000000 9.771153 3.989025 -109.611265 -1.583402 -4.793607 0.358814 46.266041 1.685061 -6.547557 0.000000 0.000000 0.000000 -15.924213 -5.307492 -103.179516 -16.481754 11.997039 -2.012184 2.638519 -1.430252 -12.099865 0.000000 0.000000 0.000000
-86.128748 80.201182 336.869839 6.218647 -0.195309 106.065708 0.990203 -0.290804 -105.877672 0.043588 0.226301 0.256100 8.376942 17.074605 -10.393968 0.000000 0.000000 0.000000 5.450202 -6.238895 -2.286536 -11.972149 6.867306 3.434640 -44.985377 -32.904068 -26.889971 47.485481 39.166953 -9.153730 0.000000 0.000000 0.000000 0.000000 0.000000 0.000000 2.411689 -12.277707 -11.670519 -7.788225 18.512004 10.556302 -27.621459 28.351128 9.439348 18.283007 -38.532156 1.814312 0.000000 0.000000 0.000000 0.000000 0.000000 0.000000 9.333636 3.738931 -108.045301 -2.371375 -4.660056 0.169236 49.997862 2.523543 -7.184589 0.000000 0.000000 0.000000 -17.480904 -7.963468 -103.011720 -19.612460 12.377886 -0.610634 2.838269 -1.574134 -13.069015 0.000000 0.000000 0.000000
-86.102308 80.156850 336.966233 6.661083 -0.429271 104.822612 0.842707 -0.241512 -104.597859 0.119416 0.102738 0.292462 7.484570 18.101109 -10.475427 0.000000 0.000000 0.000000 6.222062 -6.276054 -2.563333 -12.274315 6.494028 3.638875 -35.229406 -31.648529 -20.065496 38.627355 34.089065 -6.964399 0.000000 0.000000 0.000000 0.000000 0.000000 0.000000 2.306235 -14.698572 -12.038708 -6.414437 20.709630 10.447256 -31.137826 30.037577 10.313113 18.750596 -39.780646 1.999075 0.000000 0.000000 0.000000 0.000000 0.000000 0.000000 9.476587 4.191507 -106.821291 -2.396287 -4.564279 0.151765 51.238209 2.329273 -7.454108 0.000000 0.000000 0.000000 -17.583441 -9.227382 -102.570142 -21.297076 12.301250 0.282456 2.992850 -1.692780 -13.676420 0.000000 0.000000 0.000000
-86.021023 80.173233 337.062868 7.079728 -0.788871 100.136552 0.710011 -0.151866 -99.865521 0.230928 -0.002303 0.330243 5.893739 19.044845 -10.152767 0.000000 0.000000 0.000000 6.673999 -6.685998 -2.740493 -12.202888 7.149653 3.895798 -11.127793 -26.988726 -6.508735 14.607390 24.511261 -2.385770 0.000000 0.000000 0.000000 0.000000 0.000000 0.000000 2.139064 -15.513739 -12.588133 -4.046799 21.574871 9.944576 -32.714464 29.298129 10.199339 19.573617 -38.024369 2.558275 0.000000 0.000000 0.000000 0.000000 0.000000 0.000000 9.296225 5.300976 -102.163680 -2.638957 -4.161140 0.046323 48.792543 0.273873 -6.698583 0.000000 0.000000 0.000000 -16.208073 -10.829917 -98.672335 -22.057497 11.757513 0.954755 3.088556 -1.741281 -13.911006 0.000000 0.000000 0.000000
-85.863971 80.259446 337.139783 7.618204 -0.998239 93.105473 0.637816 -0.096810 -92.793025 0.346109 -0.054735 0.370079 4.332401 19.020395 -9.709525 0.000000 0.000000 0.000000 6.099750 -7.222036 -2.747420 -11.263959 7.695283 3.874182 5.261138 -22.996614 1.234919 -3.434842 19.141647 -1.347540 0.000000 0.000000 0.000000 0.000000 0.000000 0.000000 1.958689 -13.702558 -13.797427 -0.122256 14.994324 10.767630 -34.132330 31.848889 11.605047 20.623959 -35.404130 3.075951 0.000000 0.000000 0.000000 0.000000 0.000000 0.000000 8.545768 7.060777 -95.196279 -2.335995 -3.827606 0.067677 48.718196 -0.164780 -6.690328 0.000000 0.000000 0.000000 -13.854640 -12.021176 -92.163542 -22.013793 10.963682 1.373584 3.172533 -1.949646 -14.240780 0.000000 0.000000 0.000000
-85.715914 80.295316 337.255013 8.098613 -1.211013 66.561712 0.563405 0.178716 -66.211720 0.427229 -0.041948 0.397381 3.314158 18.755174 -9.419848 0.000000 0.000000 0.000000 5.377140 -7.656162 -2.704950 -8.475758 8.340873 3.700154 -4.786870 -33.381609 -2.720538 3.046685 27.306315 -1.685725 0.000000 0.000000 0.000000 0.000000 0.000000 0.000000 1.836897 -15.933287 -14.301561 3.091978 14.848810 10.464403 -37.229439 34.633442 13.819856 23.341233 -35.759932 4.123336 0.000000 0.000000 0.000000 0.000000 0.000000 0.000000 4.266194 10.717472 -68.511806 -1.986987 -3.629579 0.113621 50.900246 1.077070 -7.197951 0.000000 0.000000 0.000000 -6.477517 -14.875958 -65.371027 -20.688122 9.944518 1.325041 3.045333 -2.060424 -14.256821 0.000000 0.000000 0.000000
-85.578174 80.298103 337.377190 8.479692 -1.366530 -19.396620 -0.187258 0.555203 19.775469 0.467010 0.025778 0.409422 3.245416 17.912560 -9.395572 0.000000 0.000000 0.000000 4.873257 -7.948680 -2.668064 -6.557824 8.149512 3.464121 -6.825222 -38.136750 -3.255953 4.393821 31.092499 -2.863822 0.000000 0.000000 0.000000 0.000000 0.000000 0.000000 1.972532 -21.628235 -14.399113 4.277701 21.674411 8.659665 -39.111715 34.270086 14.624384 25.668357 -36.070315 4.980112 0.000000 0.000000 0.000000 0.000000 0.000000 0.000000 -10.867390 4.683633 18.328650 -1.616512 -3.427617 0.163272 47.632835 -0.161599 -6.650419 0.000000 0.000000 0.000000 11.630546 -6.752694 22.000331 -18.161315 8.750520 0.875820 2.669288 -2.062737 -13.951900 0.000000 0.000000 0.000000
-85.407955 80.284847 337.505808 8.878684 -1.454644 -44.491248 -0.516350 0.458260 44.886444 0.448641 0.159322 0.410978 3.042388 16.227106 -9.103681 0.000000 0.000000 0.000000 3.693823 -8.368901 -2.486550 -4.140224 7.638856 2.989249 -9.834810 -41.742318 -4.325707 7.760906 34.740332 -4.911492 0.000000 0.000000 0.000000 0.000000 0.000000 0.000000 1.697388 -24.099957 -14.116492 7.390096 21.871624 7.129942 -41.923123 37.946042 17.696966 29.359971 -40.150208 6.827763 0.000000 0.000000 0.000000 0.000000 0.000000 0.000000 -12.266338 -0.795352 42.874019 -1.016477 -3.432172 0.286823 47.092819 0.514279 -6.765088 0.000000 0.000000 0.000000 11.650931 -1.606156 46.330927 -16.942912 7.937781 0.825688 2.525200 -2.086264 -13.770489 0.000000 0.000000 0.000000
-85.327849 80.220371 337.578605 9.047910 -1.345368 -50.283903 -0.680989 0.490285 50.666104 0.395452 0.329007 0.397516 3.035346 13.867035 -8.651355 0.000000 0.000000 0.000000 2.763590 -9.323352 -2.226195 -2.859213 7.717696 2.600818 -14.946811 -48.753612 -7.718022 14.852142 43.548952 -9.039198 0.000000 0.000000 0.000000 0.000000 0.000000 0.000000 1.590937 -27.676264 -13.433495 8.715602 24.717185 5.174079 -44.105193 39.891767 19.611045 34.789932 -45.265671 10.517330 0.000000 0.000000 0.000000 0.000000 0.000000 0.000000 -12.164474 -2.428979 48.485156 -1.149896 -3.468834 0.274255 42.057092 -2.269655 -5.929333 0.000000 0.000000 0.000000 11.905179 -0.586282 52.081740 -17.033868 8.212547 0.820631 2.488730 -2.073740 -13.370420 0.000000 0.000000 0.000000
-85.376411 80.153827 337.559615 8.991748 -1.224527 -47.679862 -0.576938 0.500909 48.056464 0.377820 0.329237 0.395372 3.373725 12.163048 -8.392692 0.000000 0.000000 0.000000 1.601734 -8.683817 -2.127063 -0.769771 5.910291 2.121364 -17.791422 -45.610041 -8.305013 21.200919 37.557102 -13.073795 0.000000 0.000000 0.000000 0.000000 0.000000 0.000000 1.696815 -31.024831 -12.822019 8.502682 28.552507 3.691332 -45.944246 40.954864 20.721985 39.303145 -50.180066 14.226692 0.000000 0.000000 0.000000 0.000000 0.000000 0.000000 -12.129292 -2.011170 45.926039 -0.905361 -3.546559 0.337391 37.247564 -4.256184 -5.418902 0.000000 0.000000 0.000000 11.324141 -1.420160 49.606110 -16.235124 7.943371 0.632567 2.359857 -1.862457 -12.796841 0.000000 0.000000 0.000000
-85.457721 80.050075 337.554775 8.868438 -1.167977 -44.887831 -0.488435 0.533157 45.259147 0.377769 0.349945 0.390355 3.686470 10.936215 -8.204423 0.000000 0.000000 0.000000 -0.412192 -7.306034 -1.950781 4.008550 2.162604 1.419213 -18.504531 -35.712041 -5.547539 20.599992 29.800039 -11.256712 0.000000 0.000000 0.000000 0.000000 0.000000 0.000000 1.842350 -34.279436 -12.095799 6.075596 33.893264 3.090917 -45.391587 40.386667 20.260268 42.179084 -54.002192 16.890479 0.000000 0.000000 0.000000 0.000000 0.000000 0.000000 -12.040257 -1.462860 43.212708 -0.586373 -3.536572 0.399859 33.782862 -5.033505 -5.108124 0.000000 0.000000 0.000000 8.407230 -2.461194 46.485633 -13.613139 6.116922 0.412810 2.194702 -1.508560 -12.060104 0.000000 0.000000 0.000000
